<?xml version="1.0" encoding="UTF-8" standalone="no"?>
<svg
   xmlns:dc="http://purl.org/dc/elements/1.1/"
   xmlns:cc="http://creativecommons.org/ns#"
   xmlns:rdf="http://www.w3.org/1999/02/22-rdf-syntax-ns#"
   xmlns:svg="http://www.w3.org/2000/svg"
   xmlns="http://www.w3.org/2000/svg"
   xmlns:sodipodi="http://sodipodi.sourceforge.net/DTD/sodipodi-0.dtd"
   xmlns:inkscape="http://www.inkscape.org/namespaces/inkscape"
   version="1.1"
   id="svg2"
   xml:space="preserve"
   width="2666.6667"
   height="2666.6667"
   viewBox="0 0 2666.6667 2666.6667"
   sodipodi:docname="Pyinfer_ai.ai"><metadata
     id="metadata8"><rdf:RDF><cc:Work
         rdf:about=""><dc:format>image/svg+xml</dc:format><dc:type
           rdf:resource="http://purl.org/dc/dcmitype/StillImage" /></cc:Work></rdf:RDF></metadata><defs
     id="defs6"><clipPath
       clipPathUnits="userSpaceOnUse"
       id="clipPath18"><path
         d="M 0,2000 H 2000 V 0 H 0 Z"
         id="path16" /></clipPath></defs><sodipodi:namedview
     pagecolor="#ffffff"
     bordercolor="#666666"
     borderopacity="1"
     objecttolerance="10"
     gridtolerance="10"
     guidetolerance="10"
     inkscape:pageopacity="0"
     inkscape:pageshadow="2"
     inkscape:window-width="640"
     inkscape:window-height="480"
     id="namedview4" /><g
     id="g10"
     inkscape:groupmode="layer"
     inkscape:label="Pyinfer_ai"
     transform="matrix(1.3333333,0,0,-1.3333333,0,2666.6667)"><g
       id="g12"><g
         id="g14"
         clip-path="url(#clipPath18)"><g
           id="g20"
           transform="translate(1371.5166,833.2112)"><path
             d="m 0,0 c 10.03,0 15.78,5.349 15.78,13.238 v 0.268 c 0,8.826 -6.151,13.373 -16.18,13.373 H -20.861 L -20.861,0 Z M -41.455,45.467 H 1.338 c 11.901,0 21.129,-3.343 27.28,-9.494 5.216,-5.216 8.024,-12.571 8.024,-21.397 v -0.267 c 0,-15.112 -8.158,-24.607 -20.059,-29.02 L 39.45,-48.143 H 15.379 L -4.68,-18.187 h -16.181 v -29.956 h -20.594 z m -128.377,0 h 70.608 V 27.146 h -50.148 V 8.157 h 44.131 v -18.321 h -44.131 v -19.658 h 50.816 v -18.321 h -71.276 z m -126.505,0 h 71.276 V 26.745 h -50.682 V 6.819 h 44.665 v -18.721 h -44.665 v -36.241 h -20.594 z m -144.425,0 h 18.99 l 43.862,-57.637 v 57.637 h 20.327 v -93.61 h -17.519 l -45.334,59.509 v -59.509 h -20.326 z m -82.777,0 h 20.594 v -93.609 h -20.594 z m -109.12,-56.7 -35.973,56.7 h 24.071 l 22.333,-37.577 22.734,37.577 h 23.402 l -35.972,-56.299 v -37.311 h -20.595 z m -116.209,9.494 c 10.297,0 16.315,6.151 16.315,14.176 v 0.267 c 0,9.227 -6.419,14.175 -16.717,14.175 h -15.913 V -1.739 Z m -36.909,47.206 h 38.246 c 22.333,0 35.839,-13.239 35.839,-32.363 v -0.266 c 0,-21.664 -16.85,-32.898 -37.845,-32.898 h -15.646 v -28.083 h -20.594 z"
             style="fill:#ff5d00;fill-opacity:1;fill-rule:nonzero;stroke:none"
             id="path22" /></g><g
           id="g24"
           transform="translate(993.6064,825.3704)"><path
             d="m 0,0 -40.568,53.308 h -3.294 L 0,-4.329 Z"
             style="fill:#ba4104;fill-opacity:1;fill-rule:nonzero;stroke:none"
             id="path26" /></g><path
           d="m 1222.145,841.368 h 3.294 v 18.989 h -3.294 z"
           style="fill:#ba4104;fill-opacity:1;fill-rule:nonzero;stroke:none"
           id="path28" /><path
           d="m 1095.773,840.031 h 3.294 v 19.926 h -3.294 z"
           style="fill:#ba4104;fill-opacity:1;fill-rule:nonzero;stroke:none"
           id="path30" /><path
           d="m 606.333,831.472 h 3.294 v 28.618 h -3.294 z"
           style="fill:#ba4104;fill-opacity:1;fill-rule:nonzero;stroke:none"
           id="path32" /><g
           id="g34"
           transform="translate(750.9502,843.848)"><path
             d="m 0,0 -20.7,34.83 h -3.294 L -1.662,-2.747 Z"
             style="fill:#ba4104;fill-opacity:1;fill-rule:nonzero;stroke:none"
             id="path36" /></g><path
           d="m 1222.145,803.389 h 3.294 v 19.658 h -3.294 z"
           style="fill:#ba4104;fill-opacity:1;fill-rule:nonzero;stroke:none"
           id="path38" /><path
           d="m 1350.655,833.211 h 3.294 v 26.879 h -3.294 z"
           style="fill:#ba4104;fill-opacity:1;fill-rule:nonzero;stroke:none"
           id="path40" /><path
           d="m 1275.587,878.678 h -3.294 v -18.32 h 3.294 z"
           style="fill:#ba4104;fill-opacity:1;fill-rule:nonzero;stroke:none"
           id="path42" /><path
           d="m 606.333,785.069 h 3.294 v 28.083 h -3.294 z"
           style="fill:#ba4104;fill-opacity:1;fill-rule:nonzero;stroke:none"
           id="path44" /><path
           d="m 1269.569,841.368 h -3.294 v -18.321 h 3.294 z"
           style="fill:#ba4104;fill-opacity:1;fill-rule:nonzero;stroke:none"
           id="path46" /><g
           id="g48"
           transform="translate(1391.3936,818.5003)"><path
             d="m 0,0 c 11.901,4.413 20.059,13.908 20.059,29.02 v 0.267 c 0,8.826 -2.808,16.181 -8.024,21.397 -6.151,6.151 -15.379,9.494 -27.28,9.494 h -3.294 c 11.901,0 21.129,-3.343 27.28,-9.494 5.216,-5.216 8.024,-12.571 8.024,-21.397 V 29.02 C 16.765,13.908 8.607,4.413 -3.294,0 l 22.867,-33.432 h 3.294 z"
             style="fill:#ba4104;fill-opacity:1;fill-rule:nonzero;stroke:none"
             id="path50" /></g><path
           d="m 1146.456,859.956 h 3.294 v 18.722 h -3.294 z"
           style="fill:#ba4104;fill-opacity:1;fill-rule:nonzero;stroke:none"
           id="path52" /><path
           d="m 1095.773,785.069 h 3.294 v 36.24 h -3.294 z"
           style="fill:#ba4104;fill-opacity:1;fill-rule:nonzero;stroke:none"
           id="path54" /><path
           d="m 1140.438,821.309 h 3.294 v 18.722 h -3.294 z"
           style="fill:#ba4104;fill-opacity:1;fill-rule:nonzero;stroke:none"
           id="path56" /><path
           d="m 1272.961,785.069 h 3.294 v 18.32 h -3.294 z"
           style="fill:#ba4104;fill-opacity:1;fill-rule:nonzero;stroke:none"
           id="path58" /><g
           id="g60"
           transform="translate(627.2798,878.678)"><path
             d="m 0,0 h -3.294 c 22.333,0 35.839,-13.239 35.839,-32.362 v -0.267 c 0,-21.664 -16.85,-32.897 -37.845,-32.897 h 3.294 c 20.995,0 37.845,11.233 37.845,32.897 v 0.267 C 35.839,-13.239 22.333,0 0,0"
             style="fill:#ba4104;fill-opacity:1;fill-rule:nonzero;stroke:none"
             id="path62" /></g><path
           d="m 1350.655,785.069 h 3.294 v 29.955 h -3.294 z"
           style="fill:#ba4104;fill-opacity:1;fill-rule:nonzero;stroke:none"
           id="path64" /><path
           d="m 868.572,785.069 h 3.294 v 93.609 h -3.294 z"
           style="fill:#ba4104;fill-opacity:1;fill-rule:nonzero;stroke:none"
           id="path66" /><g
           id="g68"
           transform="translate(759.4521,822.3792)"><path
             d="M 0,0 V -37.311 H 3.294 V 0 l 35.973,56.299 h -3.294 z"
             style="fill:#ba4104;fill-opacity:1;fill-rule:nonzero;stroke:none"
             id="path70" /></g><g
           id="g72"
           transform="translate(951.0811,844.5775)"><path
             d="M 0,0 V -59.509 H 3.294 V -4.324 Z"
             style="fill:#ba4104;fill-opacity:1;fill-rule:nonzero;stroke:none"
             id="path74" /></g><path
           d="m 1013.934,785.069 h 3.294 v 93.609 h -3.294 z"
           style="fill:#ba4104;fill-opacity:1;fill-rule:nonzero;stroke:none"
           id="path76" /><g
           id="g78"
           transform="translate(994.1821,1118.4807)"><path
             d="M 0,0 C 17.078,-0.166 33.629,-2.4 49.394,-6.454 L 68.9,64.063 c -17.882,4.861 -36.53,7.48 -55.621,7.48 -5.42,0 -10.791,-0.204 -16.113,-0.587 z"
             style="fill:#000000;fill-opacity:1;fill-rule:nonzero;stroke:none"
             id="path80" /></g><g
           id="g82"
           transform="translate(803.3994,983.0989)"><path
             d="M 0,0 C 6.156,20.745 16.011,40.021 28.856,57.144 L 1.363,74.962 C -8.4,52.914 -14.671,28.979 -16.75,3.851 Z"
             style="fill:#000000;fill-opacity:1;fill-rule:nonzero;stroke:none"
             id="path84" /></g><g
           id="g86"
           transform="translate(848.9297,1123.2327)"><path
             d="m 0,0 c -17.196,-17.608 -31.48,-38.066 -42.082,-60.605 l 28.455,-18.441 c 12.136,15.312 26.708,28.789 43.173,39.913 z"
             style="fill:#000000;fill-opacity:1;fill-rule:nonzero;stroke:none"
             id="path88" /></g><g
           id="g90"
           transform="translate(1142.167,1052.2678)"><path
             d="M 0,0 C 12.522,-14.104 22.87,-29.999 30.56,-47.222 L 79.337,-19.06 C 72.001,2.244 61.48,22.342 48.383,40.593 Z"
             style="fill:#000000;fill-opacity:1;fill-rule:nonzero;stroke:none"
             id="path92" /></g><g
           id="g94"
           transform="translate(1048.3711,1110.7327)"><path
             d="M 0,0 C 15.397,-4.363 29.999,-10.472 43.55,-18.085 L 86.103,37.902 C 65.892,52.22 43.417,63.354 19.487,70.452 Z"
             style="fill:#000000;fill-opacity:1;fill-rule:nonzero;stroke:none"
             id="path96" /></g><g
           id="g98"
           transform="translate(1234.1563,960.1185)"><path
             d="m 0,0 c 0,0 -1.032,18.653 -2.128,26.837 -1.615,14.159 -4.646,28.022 -8.928,41.439 L -59.448,40.337 C -54.15,27.523 -50.311,14.017 -48.121,0 c 0,0 1.687,-20.844 0,-28.081 z"
             style="fill:#000000;fill-opacity:1;fill-rule:nonzero;stroke:none"
             id="path100" /></g><g
           id="g102"
           transform="translate(1187.6064,1096.8743)"><path
             d="M 0,0 C -13.898,18.538 -30.485,35.059 -49.109,48.848 L -91.35,-6.729 c 15.86,-9.445 30.193,-20.98 42.565,-34.202 z"
             style="fill:#000000;fill-opacity:1;fill-rule:nonzero;stroke:none"
             id="path104" /></g><g
           id="g106"
           transform="translate(986.394,1189.0208)"><path
             d="m 0,0 c -24.216,-2.284 -47.295,-8.464 -68.608,-17.908 l 18.489,-60.277 c 16.814,4.73 34.568,7.377 52.937,7.632 z"
             style="fill:#000000;fill-opacity:1;fill-rule:nonzero;stroke:none"
             id="path108" /></g><g
           id="g110"
           transform="translate(796.2148,926.4573)"><path
             d="m 0,0 c -0.073,2.065 -0.124,4.137 -0.124,6.219 0,15.747 2.075,31.033 5.964,45.635 l -15.76,3.624 c -0.269,-4.467 -0.421,-8.964 -0.421,-13.499 0,-12.931 1.139,-25.593 3.27,-37.916 C -4.655,2.842 -2.304,1.472 0,0"
             style="fill:#000000;fill-opacity:1;fill-rule:nonzero;stroke:none"
             id="path112" /></g><g
           id="g114"
           transform="translate(913.229,1169.0295)"><path
             d="m 0,0 c -22.604,-10.637 -43.114,-24.979 -60.755,-42.248 l 30.161,-39.946 c 14.952,9.561 31.377,17.208 48.876,22.597 z"
             style="fill:#000000;fill-opacity:1;fill-rule:nonzero;stroke:none"
             id="path116" /></g><g
           id="g118"
           transform="translate(976.7988,964.598)"><path
             d="m 0,0 c 2.438,-2.852 5.544,-5.109 9.066,-6.535 l -19.263,-29.109 -11.288,8.123 z"
             style="fill:#ff5d00;fill-opacity:1;fill-rule:nonzero;stroke:none"
             id="path120" /></g><g
           id="g122"
           transform="translate(1005.0908,1000.8362)"><path
             d="M 0,0 59.626,76.376 6.146,-4.435 C 4.356,-2.644 2.283,-1.141 0,0"
             style="fill:#ff5d00;fill-opacity:1;fill-rule:nonzero;stroke:none"
             id="path124" /></g><g
           id="g126"
           transform="translate(975.1489,979.347)"><path
             d="M 0,0 C 0.266,-10.766 9.208,-19.277 19.973,-19.012 30.739,-18.747 39.25,-9.805 38.986,0.961 38.72,11.727 29.778,20.238 19.012,19.974 8.247,19.708 -0.266,10.766 0,0"
             style="fill:#000000;fill-opacity:1;fill-rule:nonzero;stroke:none"
             id="path128" /></g><g
           id="g130"
           transform="translate(786.0151,1052.175)"><path
             d="m 0,0 c -14.974,-2.73 -46.652,-6.485 -62.349,6.686 0,0 25.111,-25.889 54.584,-29.924 C -5.58,-15.35 -2.981,-7.599 0,0"
             style="fill:#ff5d00;fill-opacity:1;fill-rule:nonzero;stroke:none"
             id="path132" /></g><g
           id="g134"
           transform="translate(777.0112,1034.219)"><path
             d="m 0,0 c -12.39,3.204 -23.848,8.977 -34.042,16.546 -7.375,1.318 -14.189,3.805 -19.302,8.096 0,0 25.11,-25.889 54.583,-29.924 0.438,1.583 0.906,3.157 1.377,4.728 C 1.738,-0.4 0.864,-0.224 0,0"
             style="fill:#ba4104;fill-opacity:1;fill-rule:nonzero;stroke:none"
             id="path136" /></g><g
           id="g138"
           transform="translate(756.4141,1091.4661)"><path
             d="m 0,0 c -5.626,-2.164 -11.638,-3.127 -17.666,-3.04 -13.07,0.186 -43.109,1.093 -51.358,5.47 0,0 34.032,-28.488 101.92,-33.759 11.833,27.199 28.789,52.21 50.393,73.815 13.997,13.996 29.423,26.041 45.945,36.01 -7.561,12.272 -28.658,41.272 -58.975,40.87 0,0 -10.465,-0.241 -17.212,-1.716 0,0 36.474,-18.5 30.411,-31.639 0,0 -8.098,-1.973 -35.502,18.22 -12.372,9.117 -27.727,13.474 -42.969,11.517 -5.009,-0.644 -10.397,-1.928 -16.072,-4.113 0,0 26.355,-11.104 35.898,-24.389 C 28.23,82.489 26.121,75.777 20.58,73.885 15.041,71.992 6.726,69.542 -3.421,67.753 c -21.528,-3.796 -43.8,-1.11 -63.561,8.232 -4.818,2.278 -9.484,4.909 -13.363,7.875 0,0 2.017,-46.502 49.297,-51.998 10.102,-1.174 19.942,-4.141 28.969,-8.826 C 4.671,19.532 10.558,15.262 10.902,10.914 11.314,5.697 5.709,2.196 0,0"
             style="fill:#ff5d00;fill-opacity:1;fill-rule:nonzero;stroke:none"
             id="path140" /></g><g
           id="g142"
           transform="translate(811.5361,1209.5139)"><path
             d="m 0,0 c -0.718,-0.121 -1.415,-0.254 -2.075,-0.398 0,0 1.879,-0.953 4.707,-2.577 C 1.684,-2.032 0.812,-1.035 0,0"
             style="fill:#ba4104;fill-opacity:1;fill-rule:nonzero;stroke:none"
             id="path144" /></g><g
           id="g146"
           transform="translate(838.8062,1171.0422)"><path
             d="m 0,0 c 0.646,0.048 1.288,0.169 1.923,0.377 2.049,0.672 3.814,2.17 4.811,4.082 0.423,0.812 0.713,1.767 0.434,2.64 -0.101,0.038 0.084,-0.042 0.074,0.066 -0.91,10.42 -10.5,15.232 -18.66,19.608 3.9,-2.467 7.787,-6.237 10.431,-10.049 1.1,-1.587 2.104,-3.346 2.51,-5.255 C 1.67,10.779 2.127,6.692 1.066,6.435 1.064,6.434 -7.035,4.464 -34.437,24.655 c -12.371,9.116 -27.726,13.474 -42.968,11.517 -5.01,-0.644 -10.397,-1.928 -16.073,-4.113 0,0 3.894,-1.643 9.224,-4.413 6.985,-0.086 13.983,-0.846 20.917,-2.296 8.787,-1.838 17.294,-4.802 25.506,-8.405 C -29.7,13.379 -20.903,9.538 -13.48,4.703 -9.463,3.032 -4.629,-0.347 0,0"
             style="fill:#ba4104;fill-opacity:1;fill-rule:nonzero;stroke:none"
             id="path148" /></g><g
           id="g150"
           transform="translate(813.9868,1207.2659)"><path
             d="m 0,0 c 10.457,-0.944 18.391,-2.969 27.813,-7.734 6.253,-3.162 11.965,-7.876 17.089,-12.602 7.314,-6.746 12.858,-14.505 17.333,-22.993 3.104,2.077 6.239,4.101 9.427,6.025 -7.561,12.272 -28.659,41.272 -58.976,40.87 0,0 -10.465,-0.241 -17.211,-1.716 0,0 1.282,-0.651 3.326,-1.794 C -0.796,0.046 -0.394,0.036 0,0"
             style="fill:#ba4104;fill-opacity:1;fill-rule:nonzero;stroke:none"
             id="path152" /></g><g
           id="g154"
           transform="translate(725.3657,1123.3284)"><path
             d="m 0,0 c 13.22,-1.536 26.632,-5.953 37.228,-14.173 1.345,-1.043 2.672,-2.171 3.551,-3.63 4.015,-6.671 -4.586,-12.08 -9.731,-14.059 -5.626,-2.164 -11.637,-3.127 -17.666,-3.04 -13.07,0.186 -43.109,1.093 -51.358,5.469 0,0 10.986,-9.166 32.874,-18.059 7.416,-0.141 14.832,0.055 22.231,0.77 6.538,1.146 12.946,2.778 19.182,5.059 17.455,6.387 13.198,27.167 1.337,37.011 -12.724,10.56 -31.677,15.335 -46.9,21.193 -10.79,4.152 -20.933,9.013 -28.882,17.8 -4.691,5.183 -7.723,10.66 -9.808,16.661 -0.46,0.328 -0.914,0.659 -1.354,0.996 0,0 2.017,-46.503 49.296,-51.998"
             style="fill:#ba4104;fill-opacity:1;fill-rule:nonzero;stroke:none"
             id="path156" /></g><g
           id="g158"
           transform="translate(893.9673,1174.7424)"><path
             d="M 0,0 C 9.772,5.369 19.891,10.036 30.299,13.969 11.992,43.931 -38.309,40.021 -38.309,40.021 -16.844,32.017 -4.771,10.483 0,0"
             style="fill:#ff5d00;fill-opacity:1;fill-rule:nonzero;stroke:none"
             id="path160" /></g><g
           id="g162"
           transform="translate(869.978,1209.5637)"><path
             d="m 0,0 c 16.821,-2.715 33.044,-11.827 44.971,-24.611 3.079,1.316 6.184,2.575 9.317,3.758 C 35.981,9.109 -14.319,5.2 -14.319,5.2 -11.039,3.977 -7.979,2.435 -5.13,0.666 -3.446,0.508 -1.738,0.28 0,0"
             style="fill:#ba4104;fill-opacity:1;fill-rule:nonzero;stroke:none"
             id="path164" /></g></g></g></g></svg>
